<svg width="18" height="18" viewBox="0 0 18 18" fill="none" xmlns="http://www.w3.org/2000/svg"><path d="M13.75 3.75V0.75H4.25V3.75" stroke="#2285D0" style="stroke:#2285D0;stroke:color(display-p3 0.1333 0.5216 0.8157);stroke-opacity:1;" stroke-width="1.5" stroke-miterlimit="10" stroke-linecap="round" stroke-linejoin="round"/><path d="M14 14.5719H16.2214C16.7357 14.5719 17.25 14.1434 17.25 13.6291V4.88622C17.25 4.37193 16.8214 3.94336 16.2214 3.94336H1.77857C1.26429 3.94336 0.75 4.37193 0.75 4.88622V13.6291C0.75 14.1434 1.26429 14.5719 1.77857 14.5719H4" stroke="#2285D0" style="stroke:#2285D0;stroke:color(display-p3 0.1333 0.5216 0.8157);stroke-opacity:1;" stroke-width="1.5" stroke-miterlimit="10" stroke-linecap="round" stroke-linejoin="round"/><path d="M4.25 11.25V17.25H13.75V11.25" stroke="#2285D0" style="stroke:#2285D0;stroke:color(display-p3 0.1333 0.5216 0.8157);stroke-opacity:1;" stroke-width="1.5" stroke-miterlimit="10" stroke-linecap="round" stroke-linejoin="round"/><path d="M3 11.1436H15" stroke="#2285D0" style="stroke:#2285D0;stroke:color(display-p3 0.1333 0.5216 0.8157);stroke-opacity:1;" stroke-width="1.5" stroke-miterlimit="10" stroke-linecap="round" stroke-linejoin="round"/><path d="M14.25 7.5C14.6642 7.5 15 7.16421 15 6.75C15 6.33579 14.6642 6 14.25 6C13.8358 6 13.5 6.33579 13.5 6.75C13.5 7.16421 13.8358 7.5 14.25 7.5Z" fill="#2285D0" style="fill:#2285D0;fill:color(display-p3 0.1333 0.5216 0.8157);fill-opacity:1;"/></svg>