<svg width="18" height="18" viewBox="0 0 18 18" fill="none" xmlns="http://www.w3.org/2000/svg"><path fill-rule="evenodd" clip-rule="evenodd" d="M6.22499 13.7783V7.18046H4.03198V13.7783H6.22499V13.7783ZM5.12847 6.27964C5.89322 6.27964 6.36921 5.773 6.36921 5.13984C6.35496 4.49243 5.89322 3.99985 5.14298 3.99985C4.39282 3.99985 3.90234 4.49243 3.90234 5.13984C3.90234 5.773 4.37823 6.27964 5.11418 6.27964H5.12843H5.12847Z" fill="#2285D0" style="fill:#2285D0;fill:color(display-p3 0.1333 0.5216 0.8157);fill-opacity:1;"/><path fill-rule="evenodd" clip-rule="evenodd" d="M7.4375 13.7783H9.63048V10.0938C9.63048 9.89661 9.64474 9.69961 9.70264 9.55865C9.86118 9.16466 10.222 8.75662 10.8278 8.75662C11.6214 8.75662 11.9388 9.36166 11.9388 10.2486V13.7783H14.1316V9.9952C14.1316 7.96864 13.0497 7.02564 11.6069 7.02564C10.4238 7.02564 9.90446 7.68691 9.6159 8.13732H9.63054V7.18047H7.43756C7.46634 7.79956 7.43756 13.7783 7.43756 13.7783H7.4375Z" fill="#2285D0" style="fill:#2285D0;fill:color(display-p3 0.1333 0.5216 0.8157);fill-opacity:1;"/><rect x="0.75" y="0.75" width="16.5" height="16.5" rx="2" stroke="#2285D0" style="stroke:#2285D0;stroke:color(display-p3 0.1333 0.5216 0.8157);stroke-opacity:1;" stroke-width="1.5"/></svg>