<svg width="18" height="18" viewBox="0 0 18 18" fill="none" xmlns="http://www.w3.org/2000/svg"><path fill-rule="evenodd" clip-rule="evenodd" d="M1.6499 8.99998C1.6499 8.77268 1.77903 8.36276 2.1526 7.82445C2.5122 7.30628 3.04851 6.74219 3.72897 6.21994C5.09321 5.1729 6.96188 4.34998 8.9999 4.34998C11.0379 4.34998 12.9066 5.1729 14.2708 6.21994C14.9513 6.74219 15.4876 7.30628 15.8472 7.82445C16.2208 8.36276 16.3499 8.77268 16.3499 8.99998C16.3499 9.22728 16.2208 9.63719 15.8472 10.1755C15.4876 10.6937 14.9513 11.2578 14.2708 11.78C12.9066 12.8271 11.0379 13.65 8.9999 13.65C6.96188 13.65 5.09321 12.8271 3.72897 11.78C3.04851 11.2578 2.5122 10.6937 2.1526 10.1755C1.77903 9.63719 1.6499 9.22728 1.6499 8.99998ZM8.9999 2.84998C6.56442 2.84998 4.38308 3.82705 2.8157 5.03001C2.03036 5.63276 1.38044 6.30617 0.920279 6.96925C0.474089 7.61219 0.149902 8.32728 0.149902 8.99998C0.149902 9.67268 0.474089 10.3878 0.920279 11.0307C1.38044 11.6938 2.03036 12.3672 2.8157 12.9699C4.38308 14.1729 6.56442 15.15 8.9999 15.15C11.4354 15.15 13.6167 14.1729 15.1841 12.9699C15.9694 12.3672 16.6194 11.6938 17.0795 11.0307C17.5257 10.3878 17.8499 9.67268 17.8499 8.99998C17.8499 8.32728 17.5257 7.61219 17.0795 6.96925C16.6194 6.30617 15.9694 5.63276 15.1841 5.03001C13.6167 3.82705 11.4354 2.84998 8.9999 2.84998ZM7.0499 8.99998C7.0499 7.92302 7.92295 7.04998 8.9999 7.04998C10.0769 7.04998 10.9499 7.92302 10.9499 8.99998C10.9499 10.0769 10.0769 10.95 8.9999 10.95C7.92295 10.95 7.0499 10.0769 7.0499 8.99998ZM8.9999 5.54998C7.09452 5.54998 5.5499 7.09459 5.5499 8.99998C5.5499 10.9054 7.09452 12.45 8.9999 12.45C10.9053 12.45 12.4499 10.9054 12.4499 8.99998C12.4499 7.09459 10.9053 5.54998 8.9999 5.54998Z" fill="#2285D0" style="fill:#2285D0;fill:color(display-p3 0.1333 0.5216 0.8157);fill-opacity:1;"/></svg>